<?xml version="1.0" encoding="UTF-8" standalone="no"?>
<svg
   xmlns:dc="http://purl.org/dc/elements/1.1/"
   xmlns:cc="http://creativecommons.org/ns#"
   xmlns:rdf="http://www.w3.org/1999/02/22-rdf-syntax-ns#"
   xmlns:svg="http://www.w3.org/2000/svg"
   xmlns="http://www.w3.org/2000/svg"
   id="svg8"
   version="1.1"
   viewBox="0 0 210 297"
   height="297mm"
   width="210mm">
  <defs
     id="defs2" />
  <metadata
     id="metadata5">
    <rdf:RDF>
      <cc:Work
         rdf:about="">
        <dc:format>image/svg+xml</dc:format>
        <dc:type
           rdf:resource="http://purl.org/dc/dcmitype/StillImage" />
        <dc:title></dc:title>
      </cc:Work>
    </rdf:RDF>
  </metadata>
  <g
     id="layer1">
    <ellipse
       ry="15.635267"
       rx="19.109772"
       cy="48.840244"
       cx="-94.479774"
       id="path936"
       style="fill:#ffd5d5;fill-opacity:0;stroke:none;stroke-width:0.551;stroke-miterlimit:4;stroke-dasharray:3.30599996, 0.55099999;stroke-dashoffset:0;stroke-opacity:0.04975125" />
    <ellipse
       ry="12.027128"
       rx="21.515198"
       cy="116.05853"
       cx="-72.563675"
       id="path938"
       style="fill:#ffd5d5;fill-opacity:0;stroke:none;stroke-width:0.551;stroke-miterlimit:4;stroke-dasharray:3.30599996, 0.55099999;stroke-dashoffset:0;stroke-opacity:0.04975125" />
    <path
       id="path1127"
       d="m 132.23188,89.063765 c -0.33076,0.348136 -0.93732,0.746729 -1.3482,0.885494 -0.4109,0.138737 -1.20401,0.108819 -1.7625,-0.06654 -0.66075,-0.207478 -1.19715,-0.563902 -1.53571,-1.020466 -0.32723,-0.441326 -0.65363,-1.844291 -0.87972,-3.781453 -0.19771,-1.69389 -0.34466,-3.183377 -0.32657,-3.309952 0.018,-0.126587 -0.19171,-1.476767 -0.4662,-3.000424 -0.27451,-1.523654 -0.63562,-3.323652 -0.8025,-3.999986 -0.1669,-0.676329 -0.59975,-2.24066 -0.96204,-3.476264 -0.36229,-1.235593 -1.22138,-3.596413 -1.90914,-5.24625 -0.68777,-1.649827 -1.81852,-4.091215 -2.51282,-5.425279 -0.69429,-1.334066 -2.11305,-3.69719 -3.15279,-5.251386 -1.03974,-1.554196 -2.85125,-3.97861 -4.02557,-5.387574 -1.23785,-1.485203 -3.52179,-3.84627 -5.43486,-5.618368 -1.86434,-1.727091 -4.49499,-3.913324 -6.0475,-5.026121 -1.511262,-1.083234 -3.901302,-2.620486 -5.311212,-3.416115 -1.40991,-0.795626 -3.59584,-1.909035 -4.8576,-2.47424 -1.26178,-0.565196 -3.13073,-1.351001 -4.15322,-1.746239 -1.02249,-0.39523 -3.27316,-1.113726 -5.00149,-1.596653 -1.72835,-0.482924 -3.38058,-0.889489 -3.67164,-0.903476 -0.29107,-0.01399 -1.13003,-0.165299 -1.86437,-0.336247 -0.73434,-0.170948 -2.58636,-0.449494 -4.1156,-0.618983 -1.52923,-0.169494 -4.161172,-0.307019 -5.848762,-0.305606 -1.68759,0.0014 -3.569964,-0.135826 -4.183047,-0.304972 -0.814366,-0.22469 -1.267652,-0.513823 -1.682418,-1.073184 -0.324283,-0.437312 -0.569616,-1.23052 -0.572159,-1.849722 -0.0024,-0.596251 0.209028,-1.423108 0.469879,-1.837454 0.301676,-0.479204 0.771949,-0.860754 1.292296,-1.048478 0.449914,-0.162322 2.021071,-0.308817 3.491466,-0.325554 1.470394,-0.01674 3.816807,0.04858 5.214255,0.145155 1.39746,0.09657 3.26161,0.27357 4.14256,0.39334 0.88097,0.119762 2.88325,0.470321 4.44954,0.779016 1.56628,0.308697 4.20251,0.967132 5.85827,1.4632 1.65577,0.496066 4.00284,1.319965 5.21573,1.830881 1.21287,0.51092 2.90143,1.228639 3.75234,1.594942 0.85092,0.366296 2.84909,1.392724 4.4404,2.280936 1.59131,0.888213 4.316072,2.589754 6.055042,3.781196 2.46033,1.685667 4.06461,3.005488 7.23135,5.94918 3.01963,2.807469 4.67416,4.529935 6.41358,6.679066 1.28919,1.592879 3.09571,4.022664 4.01446,5.399543 0.91876,1.376865 2.44048,3.949703 3.38158,5.717418 0.94111,1.767703 2.17103,4.294228 2.73317,5.614512 0.56215,1.320271 1.38726,3.510666 1.83362,4.867539 0.44633,1.356869 1.02265,3.275001 1.28063,4.262522 0.25799,0.98753 0.67472,2.799822 0.92604,4.027334 0.25136,1.227502 0.57747,3.152835 0.72477,4.278501 0.1473,1.125677 0.32595,3.004499 0.397,4.175172 0.0711,1.170671 0.0351,2.479571 -0.08,2.908662 -0.11507,0.429101 -0.47973,1.065114 -0.81034,1.413374 z m -16.15198,0.706774 c -0.28215,0.303739 -0.93528,0.67178 -1.45134,0.817905 -0.57404,0.162355 -1.29674,0.101949 -1.86144,-0.156046 -0.50771,-0.231934 -1.163,-0.745203 -1.45615,-1.140567 -0.3581,-0.482921 -0.63459,-1.780578 -0.84247,-3.953916 -0.17018,-1.77929 -0.38315,-3.55521 -0.47327,-3.9465 -0.0901,-0.391291 -0.40643,-1.73162 -0.70292,-2.978515 -0.29649,-1.246886 -0.99932,-3.476227 -1.56188,-4.954074 -0.56253,-1.477862 -1.48809,-3.594982 -2.05678,-4.704733 -0.56869,-1.109742 -1.73018,-3.071497 -2.5811,-4.359439 -0.85092,-1.287953 -2.19479,-3.115825 -2.98637,-4.061943 -0.791582,-0.946121 -2.582772,-2.779332 -3.980412,-4.073798 -1.39773,-1.294379 -3.41419,-2.988 -4.48121,-3.763395 -1.067,-0.775402 -3.0194,-1.996686 -4.33863,-2.71397 -1.31925,-0.717283 -3.3327,-1.697501 -4.47431,-2.178274 -1.14162,-0.480763 -3.02319,-1.165363 -4.18126,-1.521327 -1.15806,-0.355972 -3.12707,-0.858607 -4.37557,-1.116968 -1.24851,-0.258361 -2.86713,-0.526025 -3.59694,-0.594813 -0.72981,-0.06878 -2.335607,-0.17511 -3.568422,-0.236291 -1.232824,-0.06118 -2.510438,-0.08374 -2.839164,-0.05013 -0.328707,0.0336 -1.007277,-0.05746 -1.507926,-0.202351 -0.500649,-0.144893 -1.137287,-0.473781 -1.414746,-0.730869 -0.277459,-0.257086 -0.631917,-0.820702 -0.787698,-1.252475 -0.155819,-0.43176 -0.223562,-1.13819 -0.150719,-1.569784 0.07629,-0.451881 0.496311,-1.177379 0.990234,-1.710444 0.83181,-0.897723 0.937474,-0.92643 3.49469,-0.949312 1.450323,-0.01298 4.046434,0.119422 5.769131,0.29423 1.7227,0.174805 4.26855,0.580419 5.65745,0.90137 1.3889,0.320949 3.5909,0.922485 4.89334,1.336739 1.30245,0.414255 3.00964,1.024271 3.79378,1.355587 0.78413,0.331317 2.5821,1.19373 3.99547,1.916483 1.41337,0.722753 3.86599,2.192461 5.45027,3.266029 1.87277,1.26904 3.90151,2.892919 5.798862,4.641614 1.68531,1.553396 3.77688,3.736715 4.95046,5.167938 1.11767,1.363044 2.6959,3.507397 3.50716,4.765224 0.81125,1.257822 2.00006,3.304942 2.64178,4.54916 0.64171,1.244208 1.58108,3.302333 2.08747,4.573601 0.50639,1.271258 1.22495,3.384463 1.59679,4.696004 0.3717,1.311592 0.85973,3.325115 1.08413,4.474592 0.22445,1.149483 0.53973,3.37929 0.70065,4.955118 0.16094,1.575844 0.17549,3.268125 0.0323,3.76064 -0.14312,0.492507 -0.49111,1.143975 -0.77329,1.447701 z M 99.998248,90.37988 c -0.18506,0.19531 -0.74621,0.511423 -1.24648,0.702926 -0.50029,0.191489 -1.27135,0.24807 -1.71348,0.12567 -0.44214,-0.122398 -1.07597,-0.474637 -1.40851,-0.782772 -0.33255,-0.308122 -0.70428,-0.835337 -0.82605,-1.17157 -0.12181,-0.336225 -0.32503,-1.463025 -0.45158,-2.504009 -0.12658,-1.040963 -0.32962,-2.495919 -0.4512,-3.233223 -0.1216,-0.737296 -0.62189,-2.456228 -1.11187,-3.819829 -0.48995,-1.363609 -1.49079,-3.514368 -2.2241,-4.779476 -0.73331,-1.265087 -1.81805,-2.915643 -2.41055,-3.667901 -0.5925,-0.752238 -1.95161,-2.175874 -3.02025,-3.163617 -1.0688,-0.987577 -2.58681,-2.239719 -3.3737,-2.782163 -0.78689,-0.542455 -2.54058,-1.520597 -3.89709,-2.173645 -1.35652,-0.653046 -3.62211,-1.497392 -5.03464,-1.876328 -1.41254,-0.378926 -3.798684,-0.764556 -5.302533,-0.85696 -1.503867,-0.09239 -3.187817,-0.222998 -3.742117,-0.29023 -0.658665,-0.07989 -1.286168,-0.380152 -1.811272,-0.866706 -0.601599,-0.557424 -0.841694,-1.041833 -0.955636,-1.928033 -0.140623,-1.093774 -0.07514,-1.266697 0.863178,-2.279376 0.999629,-1.078839 1.048017,-1.096533 3.12502,-1.142591 1.160319,-0.02573 3.181716,0.07001 4.49199,0.212753 1.31028,0.142745 3.91211,0.710672 5.78182,1.262071 1.86973,0.551391 4.55787,1.591758 5.97363,2.311923 1.41577,0.720162 3.47836,1.949651 4.58354,2.732199 1.25649,0.889685 3.00835,2.426799 4.6754,4.102306 1.46631,1.473712 3.16958,3.405749 3.78505,4.29339 0.61549,0.887648 1.59181,2.461621 2.16963,3.497736 0.57779,1.036111 1.54826,3.205147 2.15658,4.820063 0.60832,1.61491 1.27061,3.790587 1.471762,4.834819 0.20111,1.044253 0.46656,2.875693 0.5898,4.069916 0.12324,1.194222 0.095,2.582298 -0.0627,3.084621 -0.15772,0.502319 -0.43837,1.072936 -0.623672,1.268041 z"
       style="fill:#000000;stroke-width:0.26458332" />
    <g
       transform="translate(-4.4901281,-4.1159507)"
       id="g121">
      <g
         id="g108"
         transform="translate(-41.694047,61.204722)">
        <path
           id="path32"
           d="m 104.41628,105.17972 c -0.80957,-0.54964 -0.81789,-0.64979 -0.81789,-9.840981 0,-9.28569 0,-9.28569 -1.38004,-9.07287 -3.997566,0.61649 -19.671382,2.34256 -21.290092,2.34457 -2.175905,0.003 -3.874389,-0.91994 -5.19779,-2.82346 -0.677481,-0.97446 -0.836778,-1.69142 -0.836778,-3.76617 0,-2.56259 0,-2.56259 -6.900165,-5.7155 -8.017306,-3.66336 -8.632025,-4.03256 -9.430858,-5.664318 -1.012225,-2.067635 -0.778307,-4.25006 0.737057,-6.876621 1.618225,-2.804835 1.573222,-3.500349 -0.592203,-9.152371 -2.008544,-5.242549 -1.915187,-7.334439 0.418824,-9.384592 1.578065,-1.386146 2.555088,-1.622822 7.86948,-1.906328 6.000169,-0.320089 7.061022,-0.712075 8.793091,-3.249074 1.625702,-2.381211 5.101646,-3.454613 7.65548,-2.364083 0.55359,0.236401 2.43733,1.702981 4.186094,3.259086 1.787344,1.590424 3.087628,2.527587 2.969592,2.140281 -1.830652,-6.00658 -5.499181,-20.705299 -5.493852,-22.012207 0.01185,-2.893616 2.572227,-5.604398 5.29945,-5.610677 1.510471,-0.0034 3.778665,-0.753584 4.681594,-1.548232 0.48021,-0.422627 2.094348,-2.248869 3.586986,-4.0583119 3.00108,-3.638052 4.30266,-4.504902 6.76417,-4.504902 2.5133,0 3.79997,0.890942 7.02883,4.8670469 3.18563,3.92289 4.30782,4.745754 6.92488,5.077809 3.59382,0.455991 5.41093,1.804908 6.27723,4.659836 0.38125,1.256435 0.23694,2.100991 -1.4573,8.528806 -1.03425,3.923848 -2.10062,7.85662 -2.36971,8.739488 -2.132,6.99507 -2.15645,6.926162 1.32959,3.747385 3.21136,-2.928287 4.65639,-3.747385 6.61106,-3.747385 1.86181,0 4.25026,1.321907 5.45491,3.019072 1.61828,2.279889 3.02183,2.765101 8.88097,3.07014 3.26963,0.17023 5.37711,0.446968 6.07214,0.797352 2.1088,1.063099 3.45657,3.10474 3.45657,5.236124 0,1.586337 -1.07837,5.303064 -2.27853,7.853293 -1.32674,2.819178 -1.22596,4.469384 0.42725,6.996227 1.35151,2.065693 1.49706,4.435039 0.40044,6.518626 -0.8956,1.70164 -0.97002,1.74609 -9.31343,5.56397 -6.90016,3.15747 -6.90016,3.15747 -6.90016,5.72006 0,2.07475 -0.1593,2.79171 -0.83678,3.76617 -1.3006,1.87073 -3.02791,2.82577 -5.11072,2.82577 -1.55283,0 -17.48364,-1.74956 -21.37717,-2.34769 -1.38003,-0.21201 -1.38003,-0.21201 -1.38003,9.07368 0,9.191191 -0.008,9.291341 -0.8179,9.840981 -0.44984,0.30542 -0.90981,0.55531 -1.02214,0.55531 -0.11233,0 -0.57231,-0.24989 -1.02215,-0.55531 z M 92.190112,84.036989 c 11.224268,-1.32391 11.224268,-1.32391 11.224268,-4.68271 0,-3.3588 0,-3.3588 -6.256149,-7.22696 -3.440884,-2.127485 -7.033284,-4.337878 -7.983107,-4.911974 -1.726959,-1.043827 -1.726959,-1.043827 -5.817715,0.902234 -2.249921,1.070326 -4.474785,1.946051 -4.944147,1.946051 -1.080435,0 -1.770965,-0.791969 -1.615775,-1.853116 0.09407,-0.643146 0.859085,-1.171866 3.512387,-2.427452 1.865673,-0.882868 3.392851,-1.685478 3.393723,-1.783567 7.29e-4,-0.0981 -1.691183,-1.204738 -3.760138,-2.459199 -5.88428,-3.567785 -6.142537,-3.746246 -6.35874,-4.394072 -0.253696,-0.760165 0.351316,-1.905818 1.166599,-2.20906 0.337749,-0.125635 0.9942,0.01296 1.45878,0.308058 0.464578,0.295063 1.393466,0.836689 2.064196,1.203618 0.67073,0.366929 2.663143,1.571422 4.427585,2.676639 3.208074,2.009493 3.208074,2.009493 3.312083,-1.990204 0.103996,-3.999707 0.103996,-3.999707 1.154544,-4.357166 0.911081,-0.309994 1.147832,-0.240987 1.783378,0.519792 0.663761,0.794545 0.720838,1.30885 0.605501,5.455636 -0.127338,4.578395 -0.127338,4.578395 6.864822,8.841205 6.992173,4.262815 6.992173,4.262815 7.087823,-12.58716 0.0957,-16.849974 0.0957,-16.849974 -3.40408,-20.255077 -3.545077,-3.449215 -4.155862,-4.57559 -3.058121,-5.639637 0.854521,-0.828297 1.852898,-0.406875 4.190351,1.768766 2.36021,2.196831 2.36021,2.196831 2.36021,-2.379727 0,-3.757955 0.10894,-4.693238 0.60905,-5.228898 0.75573,-0.809446 1.52332,-0.829287 2.39804,-0.06196 0.58625,0.514268 0.67299,1.188182 0.67299,5.228898 0,4.638532 0,4.638532 2.36021,2.441707 1.30902,-1.218409 2.69289,-2.19682 3.1072,-2.19682 0.90884,0 1.91456,1.289847 1.63121,2.092057 -0.11336,0.320813 -1.75851,2.11272 -3.65598,3.982016 -3.44995,3.398721 -3.44995,3.398721 -3.35429,20.251417 0.0956,16.852693 0.0956,16.852693 7.17983,12.520324 7.08417,-4.332374 7.08417,-4.332374 7.08417,-9.238788 0,-5.491631 0.25049,-6.13522 2.13804,-5.493146 0.98197,0.334041 0.99087,0.36798 1.09449,4.163575 0.0595,2.182274 0.25885,3.826796 0.46373,3.826796 0.1976,0 1.81983,-0.937486 3.60495,-2.083311 1.78513,-1.145814 3.90892,-2.444627 4.71954,-2.886243 3.55498,-1.936685 5.33226,0.932644 1.85808,2.999789 -0.65039,0.386988 -1.87209,1.108888 -2.7149,1.604231 -0.84279,0.495328 -2.30705,1.413842 -3.25388,2.041125 -0.94684,0.627278 -1.91331,1.207258 -2.14771,1.288838 -0.55291,0.192419 -0.60922,0.157304 3.25388,2.029562 3.4295,1.662129 4.15752,2.543159 3.11126,3.765134 -0.74293,0.867698 -1.91626,0.594443 -6.20199,-1.444371 -4.11967,-1.959795 -4.11967,-1.959795 -9.7147,1.472917 -11.75612,7.212713 -10.60493,6.131023 -10.48472,9.851863 0.10558,3.26833 0.10558,3.26833 11.32986,4.60329 12.05562,1.43382 12.77187,1.41928 13.56858,-0.27567 0.22867,-0.48646 0.41944,-1.96043 0.42394,-3.27549 0.006,-1.71685 0.18746,-2.6114 0.64401,-3.17255 0.34971,-0.42984 3.94792,-2.29022 7.99601,-4.13419 9.10818,-4.148907 9.04595,-4.079045 7.02497,-7.887021 -1.35224,-2.547932 -1.41168,-2.800529 -1.24276,-5.281297 0.12643,-1.856276 0.6159,-3.756336 1.70252,-6.60837 2.25755,-5.925193 1.92188,-6.310594 -5.82869,-6.692584 -5.75736,-0.283745 -7.52551,-0.961491 -10.1263,-3.881512 -1.5211,-1.707823 -1.9785,-2.010117 -3.0414,-2.010117 -1.076,0 -1.73092,0.449196 -4.68072,3.210419 -3.14221,2.94133 -3.55171,3.21043 -4.8853,3.21043 -1.7683,0 -3.24449,-1.021107 -3.57317,-2.471642 -0.16327,-0.720566 0.66868,-4.402933 2.73181,-12.091617 1.63163,-6.080535 2.96658,-11.293059 2.96658,-11.58339 0,-1.224079 -1.26243,-2.061237 -3.58715,-2.378739 -3.11066,-0.424837 -5.01452,-1.536024 -7.35425,-4.292294 -3.91115,-4.6074769 -5.06498,-5.7074239 -5.987,-5.7074239 -0.92598,0 -2.14984,1.169714 -5.971593,5.7074239 -2.304238,2.73589 -5.026346,4.280567 -7.543448,4.280567 -1.730465,0 -3.413373,1.161889 -3.413373,2.35661 0,0.333011 1.333755,5.575955 2.963893,11.650976 2.040491,7.604262 2.89159,11.364611 2.731816,12.069752 -0.326192,1.439545 -1.807096,2.459777 -3.57048,2.459777 -1.333597,0 -1.743087,-0.2691 -4.885294,-3.21043 -2.949802,-2.761223 -3.604729,-3.210419 -4.680724,-3.210419 -1.062902,0 -1.520293,0.302294 -3.041407,2.010117 -2.60078,2.920021 -4.368926,3.597767 -10.126297,3.881512 -5.170059,0.254804 -6.35253,0.5594 -6.928507,1.784733 -0.411459,0.87534 0.112301,2.764186 2.106895,7.598052 0.494625,1.198719 0.796299,2.755679 0.819075,4.227288 0.03138,2.027803 -0.141959,2.665061 -1.337895,4.918482 -2.040632,3.845002 -2.061471,3.821371 6.996472,7.935927 4.048097,1.83886 7.649984,3.67586 8.004192,4.08227 0.47514,0.54513 0.650799,1.40668 0.669881,3.28554 0.01422,1.40068 0.146892,2.84498 0.294812,3.20958 0.233333,0.57512 1.721715,1.64577 2.255385,1.62239 0.101201,-0.004 5.234925,-0.60383 11.408279,-1.332 z"
           style="fill:#000000;stroke-width:0.36231741" />
      </g>
      <circle
         r="1.4967093"
         cy="117.86259"
         cx="94.012062"
         id="path4523"
         style="fill:#ffffff;fill-opacity:1;fill-rule:evenodd;stroke:#000000;stroke-width:5;stroke-miterlimit:4;stroke-dasharray:none;stroke-dashoffset:0;stroke-opacity:1;paint-order:stroke fill markers;opacity:1" />
      <circle
         r="1.4967093"
         cy="129.74274"
         cx="90.831551"
         id="path4523-8"
         style="opacity:1;fill:#ffffff;fill-opacity:0.95670998;fill-rule:evenodd;stroke:#000000;stroke-width:5;stroke-miterlimit:4;stroke-dasharray:none;stroke-dashoffset:0;stroke-opacity:1;paint-order:stroke fill markers" />
      <circle
         r="1.4967093"
         cy="115.52399"
         cx="81.570663"
         id="path4523-7"
         style="opacity:1;fill:#ffffff;fill-opacity:0.96536799;fill-rule:evenodd;stroke:#000000;stroke-width:5;stroke-miterlimit:4;stroke-dasharray:none;stroke-dashoffset:0;stroke-opacity:1;paint-order:stroke fill markers" />
      <circle
         r="1.4967093"
         cy="115.99171"
         cx="46.023811"
         id="path4523-1"
         style="fill:#ffffff;fill-opacity:1;fill-rule:evenodd;stroke:#000000;stroke-width:5;stroke-miterlimit:4;stroke-dasharray:none;stroke-dashoffset:0;stroke-opacity:1;paint-order:stroke fill markers;opacity:1" />
      <circle
         r="1.4967093"
         cy="117.95614"
         cx="33.769505"
         id="path4523-9"
         style="opacity:1;fill:#feffff;fill-opacity:0.98268397;fill-rule:evenodd;stroke:#000000;stroke-width:5;stroke-miterlimit:4;stroke-dasharray:none;stroke-dashoffset:0;stroke-opacity:1;paint-order:stroke fill markers" />
      <circle
         r="1.4967093"
         cy="129.64919"
         cx="36.762924"
         id="path4523-77"
         style="opacity:1;fill:#ffffff;fill-opacity:0.9134199;fill-rule:evenodd;stroke:#000000;stroke-width:5;stroke-miterlimit:4;stroke-dasharray:none;stroke-dashoffset:0;stroke-opacity:1;paint-order:stroke fill markers" />
      <circle
         r="1.4967093"
         cy="85.651253"
         cx="63.70369"
         id="path4523-92"
         style="opacity:1;fill:#fffffe;fill-opacity:0.91542287;fill-rule:evenodd;stroke:#000000;stroke-width:5;stroke-miterlimit:4;stroke-dasharray:none;stroke-dashoffset:0;stroke-opacity:1;paint-order:stroke fill markers" />
      <circle
         r="1.4967093"
         cy="91.670189"
         cx="70.938705"
         id="path4523-3"
         style="opacity:1;fill:#ffffff;fill-opacity:0.99502486;fill-rule:evenodd;stroke:#000000;stroke-width:5;stroke-miterlimit:4;stroke-dasharray:none;stroke-dashoffset:0;stroke-opacity:1;paint-order:stroke fill markers" />
      <circle
         r="1.4967093"
         cy="91.638084"
         cx="56.655769"
         id="path4523-76"
         style="opacity:1;fill:#fcffff;fill-opacity:1;fill-rule:evenodd;stroke:#000004;stroke-width:5;stroke-miterlimit:4;stroke-dasharray:none;stroke-dashoffset:0;stroke-opacity:1;paint-order:stroke fill markers" />
    </g>
  </g>
</svg>
