<?xml version="1.0" encoding="UTF-8" standalone="no"?>
<svg
   xmlns:dc="http://purl.org/dc/elements/1.1/"
   xmlns:cc="http://creativecommons.org/ns#"
   xmlns:rdf="http://www.w3.org/1999/02/22-rdf-syntax-ns#"
   xmlns:svg="http://www.w3.org/2000/svg"
   xmlns="http://www.w3.org/2000/svg"
   xmlns:sodipodi="http://sodipodi.sourceforge.net/DTD/sodipodi-0.dtd"
   xmlns:inkscape="http://www.inkscape.org/namespaces/inkscape"
   id="svg8"
   version="1.1"
   viewBox="0 0 210 297"
   height="297mm"
   width="210mm"
   sodipodi:docname="logo.svg"
   inkscape:version="0.92.2 (5c3e80d, 2017-08-06)">
  <sodipodi:namedview
     pagecolor="#ffffff"
     bordercolor="#666666"
     borderopacity="1"
     objecttolerance="10"
     gridtolerance="10"
     guidetolerance="10"
     inkscape:pageopacity="0"
     inkscape:pageshadow="2"
     inkscape:window-width="1920"
     inkscape:window-height="1017"
     id="namedview21"
     showgrid="false"
     inkscape:zoom="0.2102413"
     inkscape:cx="-1455.9876"
     inkscape:cy="1257.3605"
     inkscape:window-x="1912"
     inkscape:window-y="-8"
     inkscape:window-maximized="1"
     inkscape:current-layer="layer1" />
  <defs
     id="defs2" />
  <metadata
     id="metadata5">
    <rdf:RDF>
      <cc:Work
         rdf:about="">
        <dc:format>image/svg+xml</dc:format>
        <dc:type
           rdf:resource="http://purl.org/dc/dcmitype/StillImage" />
        <dc:title></dc:title>
      </cc:Work>
    </rdf:RDF>
  </metadata>
  <g
     id="layer1">
    <ellipse
       ry="15.635267"
       rx="19.109772"
       cy="116.02588"
       cx="13.640149"
       id="path936"
       style="fill:#ffd5d5;fill-opacity:0;stroke:none;stroke-width:0.551;stroke-miterlimit:4;stroke-dasharray:3.30599996, 0.55099999;stroke-dashoffset:0;stroke-opacity:0.04975125" />
    <g
       id="g4852"
       transform="translate(145.01106,16.246146)">
      <circle
         r="54.282429"
         cy="136.59396"
         cx="-40.005692"
         id="path4718"
         style="fill:#fffffb;fill-opacity:0.06030154;stroke:#000000;stroke-width:3.96875;stroke-linecap:round;stroke-miterlimit:4;stroke-dasharray:none;stroke-dashoffset:0;stroke-opacity:1" />
      <g
         transform="translate(-98.959968,23.503463)"
         id="g4738">
        <path
           style="fill:none;stroke:#000000;stroke-width:0.26458332px;stroke-linecap:butt;stroke-linejoin:miter;stroke-opacity:1"
           d="m 59.462923,81.17161 c 0.157308,79.44121 0,80.07044 0,80.07044"
           id="path4520"
           inkscape:connector-curvature="0" />
        <path
           style="fill:none;stroke:#000000;stroke-width:3.96875;stroke-linecap:round;stroke-linejoin:miter;stroke-miterlimit:4;stroke-dasharray:none;stroke-opacity:1"
           d="m 59.462923,161.24205 c 0,-80.07044 0,-80.07044 0,-80.07044 v 0"
           id="path4526"
           inkscape:connector-curvature="0" />
        <path
           style="fill:none;stroke:#000000;stroke-width:3.96875;stroke-linecap:round;stroke-linejoin:miter;stroke-miterlimit:4;stroke-dasharray:none;stroke-dashoffset:0;stroke-opacity:1"
           d="M 89.351693,113.89195 59.353141,131.60106 29.669207,113.89195"
           id="path4528"
           inkscape:connector-curvature="0"
           sodipodi:nodetypes="ccc" />
        <path
           style="fill:none;stroke:#000000;stroke-width:3.96875;stroke-linecap:round;stroke-linejoin:miter;stroke-miterlimit:4;stroke-dasharray:none;stroke-opacity:1"
           d="m 86.59878,125.7688 -9.517213,-4.64062 10e-7,-10.30376"
           id="path4530"
           inkscape:connector-curvature="0" />
        <path
           style="fill:none;stroke:#000000;stroke-width:3.96875;stroke-linecap:round;stroke-linejoin:miter;stroke-miterlimit:4;stroke-dasharray:none;stroke-opacity:1"
           d="m 66.738478,87.346 -6.882281,6.135063"
           id="path4532"
           inkscape:connector-curvature="0" />
        <path
           style="fill:none;stroke:#000000;stroke-width:3.96875;stroke-linecap:round;stroke-linejoin:miter;stroke-miterlimit:4;stroke-dasharray:none;stroke-opacity:1"
           d="m 32.42212,125.7688 9.517213,-4.64062 -10e-7,-10.30376"
           id="path4530-0"
           inkscape:connector-curvature="0" />
        <path
           style="fill:none;stroke:#000000;stroke-width:3.96875;stroke-linecap:round;stroke-linejoin:miter;stroke-miterlimit:4;stroke-dasharray:none;stroke-opacity:1"
           d="M 51.617123,86.677437 58.499404,92.8125"
           id="path4532-3"
           inkscape:connector-curvature="0" />
        <path
           style="fill:none;stroke:#000000;stroke-width:3.96875;stroke-linecap:butt;stroke-linejoin:miter;stroke-miterlimit:4;stroke-dasharray:none;stroke-opacity:1"
           d="m 60.066144,141.00037 23.359722,3.05221 c 0,0 3.893206,0.50055 4.004439,-2.66963 0.111236,-3.17019 0,-5.89543 1.557285,-6.61845 1.557282,-0.72303 14.40487,-6.39599 14.68295,-6.89654 0.27809,-0.50056 2.33593,-1.44605 0.55617,-4.89432 -1.77975,-3.44827 -3.44826,-5.39487 -1.27919,-10.73413 2.16907,-5.33925 2.61401,-7.00777 1.89098,-7.89764 -0.72302,-0.88988 -4.838696,-2.00223 -7.897645,-2.2247 -3.058948,-0.22247 -5.561723,-0.3337 -6.952156,-1.16796 -1.39043,-0.83426 -3.392651,-3.893203 -5.728576,-4.838703 -2.335924,-0.94549 -5.672957,1.83537 -5.839809,2.2247 -0.166854,0.38932 -5.450491,5.839803 -6.451602,3.948823 -1.00111,-1.89099 5.45049,-24.360353 5.45049,-24.360353 0,0 0.389321,-1.39044 -1.223579,-2.50278 -1.6129,-1.11234 -3.448269,-1.11234 -4.560615,-1.05673 -1.112345,0.0556 -5.839809,-3.11456 -8.008882,-5.83981 -2.169072,-2.72524 -3.239705,-3.434364 -4.407666,-3.601214 l -0.472747,0.04171 c -1.167961,0.166851 -2.294211,0.834259 -4.463284,3.559504 -2.169072,2.725245 -6.896536,5.895429 -8.008882,5.839809 -1.112345,-0.05562 -2.947715,-0.05562 -4.560614,1.05673 -1.6129,1.112343 -1.223579,2.502776 -1.223579,2.502776 0,0 6.4516,22.469368 5.45049,24.360358 -1.001112,1.89098 -6.284748,-3.55951 -6.451602,-3.948831 -0.166852,-0.389321 -3.503885,-3.170182 -5.839809,-2.224691 -2.335925,0.945494 -4.338146,4.004442 -5.728576,4.838702 -1.390433,0.83426 -3.893208,0.94549 -6.952156,1.16796 -3.058949,0.22247 -7.174625,1.33482 -7.897649,2.2247 -0.723024,0.88987 -0.278086,2.55839 1.890986,7.89764 2.169073,5.33926 0.500556,7.28586 -1.279196,10.73413 -1.779752,3.44827 0.278086,4.39376 0.556172,4.89432 0.278087,0.50055 13.12567,6.17351 14.682952,6.89654 1.557285,0.72302 1.446049,3.44826 1.557285,6.61845 0.111233,3.17018 4.004439,2.66963 4.004439,2.66963 l 24.26425,-3.05221 z"
           id="path4534-2"
           inkscape:connector-curvature="0"
           sodipodi:nodetypes="ccscccscssccccsccccscccccssscssccsccc" />
        <circle
           style="fill:#fffffb;fill-opacity:1;stroke:#000000;stroke-width:2.9104166;stroke-linecap:round;stroke-miterlimit:4;stroke-dasharray:none;stroke-opacity:1"
           id="path4600-1"
           cx="50.83416"
           cy="85.876938"
           r="3.0887449" />
        <circle
           style="fill:#fffffb;fill-opacity:1;stroke:#000000;stroke-width:2.9104166;stroke-linecap:round;stroke-miterlimit:4;stroke-dasharray:none;stroke-opacity:1"
           id="path4600-1-7"
           cx="59.510448"
           cy="77.979294"
           r="3.0887449" />
        <circle
           style="fill:#fffffb;fill-opacity:1;stroke:#000000;stroke-width:2.9104166;stroke-linecap:round;stroke-miterlimit:4;stroke-dasharray:none;stroke-opacity:1"
           id="path4600-1-0"
           cx="68.186737"
           cy="85.988174"
           r="3.0887449" />
        <circle
           style="fill:#fffffb;fill-opacity:1;stroke:#000000;stroke-width:2.9104166;stroke-linecap:round;stroke-miterlimit:4;stroke-dasharray:none;stroke-opacity:1"
           id="path4600-1-75"
           cx="77.085503"
           cy="108.90248"
           r="3.0887449" />
        <circle
           style="fill:#fffffb;fill-opacity:1;stroke:#000000;stroke-width:2.9104166;stroke-linecap:round;stroke-miterlimit:4;stroke-dasharray:none;stroke-opacity:1"
           id="path4600-1-4"
           cx="90.878578"
           cy="112.57323"
           r="3.0887449" />
        <circle
           style="fill:#fffffb;fill-opacity:1;stroke:#000000;stroke-width:2.9104166;stroke-linecap:round;stroke-miterlimit:4;stroke-dasharray:none;stroke-opacity:1"
           id="path4600-1-758"
           cx="87.319077"
           cy="126.36629"
           r="3.0887449" />
        <circle
           style="fill:#fffffb;fill-opacity:1;stroke:#000000;stroke-width:2.9104166;stroke-linecap:round;stroke-miterlimit:4;stroke-dasharray:none;stroke-opacity:1"
           id="path4600-1-41"
           cx="31.590595"
           cy="126.14383"
           r="3.0887449" />
        <circle
           style="fill:#fffffb;fill-opacity:1;stroke:#000000;stroke-width:2.9104166;stroke-linecap:round;stroke-miterlimit:4;stroke-dasharray:none;stroke-opacity:1"
           id="path4600-1-6"
           cx="42.157871"
           cy="109.56989"
           r="3.0887449" />
        <circle
           style="fill:#fffffb;fill-opacity:1;stroke:#000000;stroke-width:2.9104166;stroke-linecap:round;stroke-miterlimit:4;stroke-dasharray:none;stroke-opacity:1"
           id="path4600-1-72"
           cx="27.808622"
           cy="112.2395"
           r="3.0887449" />
      </g>
    </g>
    <circle
       style="fill:#732100;fill-opacity:0;stroke:#ac1f17;stroke-width:7.9375;stroke-linecap:round;stroke-miterlimit:4;stroke-dasharray:none;stroke-dashoffset:0;stroke-opacity:1"
       id="path4858"
       cx="105.00536"
       cy="152.8401"
       r="62.736248" />
  </g>
</svg>
